<svg xmlns="http://www.w3.org/2000/svg" viewBox="0 0 800 700" width="100%" height="100%">
  <rect width="100%" height="100%" fill="none"/>

  <g transform="translate(0, -20)">
    <path d="M 230,160 C 200,240 280,310 330,315" fill="none" stroke="#941865" stroke-width="16" stroke-linecap="round"/>
    <path d="M 570,160 C 600,240 520,310 470,315" fill="none" stroke="#941865" stroke-width="16" stroke-linecap="round"/>
    
    <circle cx="230" cy="152" r="14" fill="#000000"/>
    <circle cx="570" cy="152" r="14" fill="#000000"/>

    <path d="M 400,400 C 400,400 240,290 240,190 C 240,130 290,90 350,90 C 385,90 400,120 400,120 C 400,120 415,90 450,90 C 510,90 560,130 560,190 C 560,290 400,400 400,400 Z" fill="#941865"/>

    <path d="M 380,190 H 420 V 230 H 460 V 270 H 420 V 310 H 380 V 270 H 340 V 230 H 380 Z" fill="#FFFFFF"/>

    <path d="M 320,300 L 400,400 L 480,300" fill="none" stroke="#1A1A1A" stroke-width="42" stroke-linecap="round" stroke-linejoin="round"/>
    <path d="M 400,390 L 400,470" fill="none" stroke="#1A1A1A" stroke-width="42" stroke-linecap="round"/>
  </g>

  <text x="400" y="580" text-anchor="middle" font-family="Arial, Helvetica, sans-serif" font-weight="900" font-size="76" letter-spacing="2">
    <tspan fill="#941865">Doc</tspan><tspan fill="#000000">Appoint</tspan>
  </text>
</svg>
